<svg xmlns="http://www.w3.org/2000/svg" viewBox="0 0 512 512" width="512" height="512">
  <rect width="512" height="512" fill="#10B981"/>
  <g transform="scale(8)" fill="#0B0F17">
    <path d="M39 23c-1.6-2.4-4.3-3.8-7.4-3.8-4.7 0-8 2.6-8 6.5 0 3.6 2.6 5.3 7.2 6.3l2.2.5c2.7.6 3.8 1.3 3.8 2.7 0 1.6-1.6 2.6-4 2.6-2.6 0-4.5-1.1-5.6-3l-3.9 2.3c1.7 3 5 4.7 9.3 4.7 5.2 0 8.6-2.6 8.6-6.8 0-3.7-2.5-5.4-7.5-6.5l-2.2-.5c-2.4-.5-3.5-1.2-3.5-2.5 0-1.5 1.4-2.4 3.6-2.4 2.2 0 3.8 1 4.8 2.7z"/>
    <rect x="30" y="14" width="4" height="36" rx="2"/>
  </g>
</svg>
